<svg fill="none" height="312" viewBox="0 0 820 312" width="820" xmlns="http://www.w3.org/2000/svg" xmlns:xlink="http://www.w3.org/1999/xlink"><filter id="a" color-interpolation-filters="sRGB" filterUnits="userSpaceOnUse" height="61.376" width="413.47" x="262.14" y="138.488"><feFlood flood-opacity="0" result="BackgroundImageFix"/><feColorMatrix in="SourceAlpha" type="matrix" values="0 0 0 0 0 0 0 0 0 0 0 0 0 0 0 0 0 0 127 0"/><feOffset dy="4"/><feGaussianBlur stdDeviation="2"/><feColorMatrix type="matrix" values="0 0 0 0 0 0 0 0 0 0 0 0 0 0 0 0 0 0 0.25 0"/><feBlend in2="BackgroundImageFix" mode="normal" result="effect1_dropShadow"/><feBlend in="SourceGraphic" in2="effect1_dropShadow" mode="normal" result="shape"/></filter><filter id="b" color-interpolation-filters="sRGB" filterUnits="userSpaceOnUse" height="128" width="128" x="129" y="96"><feFlood flood-opacity="0" result="BackgroundImageFix"/><feColorMatrix in="SourceAlpha" type="matrix" values="0 0 0 0 0 0 0 0 0 0 0 0 0 0 0 0 0 0 127 0"/><feOffset dy="4"/><feGaussianBlur stdDeviation="2"/><feColorMatrix type="matrix" values="0 0 0 0 0 0 0 0 0 0 0 0 0 0 0 0 0 0 0.25 0"/><feBlend in2="BackgroundImageFix" mode="normal" result="effect1_dropShadow"/><feBlend in="SourceGraphic" in2="effect1_dropShadow" mode="normal" result="shape"/></filter><g filter="url(#a)"><path d="m284.7 179h-6.08l-12.48-30.784h6.784l8.768 23.744 8.832-23.744h6.464zm38.333-3.712c-.853 1.621-2.133 2.816-3.84 3.584-1.707.725-3.456 1.088-5.248 1.088s-3.413-.32-4.864-.96c-1.408-.64-2.603-1.515-3.584-2.624s-1.749-2.411-2.304-3.904c-.512-1.493-.768-3.115-.768-4.864v-19.392h6.016v18.496c0 1.067.128 2.091.384 3.072.256.939.661 1.771 1.216 2.496s1.259 1.301 2.112 1.728c.896.427 1.984.64 3.264.64 2.432 0 4.245-.725 5.44-2.176 1.237-1.451 1.856-3.349 1.856-5.696v-18.56h6.016v25.088c0 1.237.021 2.368.064 3.392.085.981.171 1.749.256 2.304h-5.76c-.085-.341-.149-.875-.192-1.6-.043-.768-.064-1.472-.064-2.112zm36.386-14.848c-.086-2.219-.832-4.075-2.24-5.568-1.408-1.536-3.478-2.304-6.208-2.304-1.28 0-2.432.235-3.456.704-.982.427-1.835 1.024-2.56 1.792-.683.725-1.238 1.557-1.664 2.496-.427.939-.662 1.899-.704 2.88zm6.08 9.792c-.427 1.365-1.067 2.645-1.92 3.84-.811 1.152-1.814 2.176-3.008 3.072-1.152.853-2.475 1.536-3.968 2.048-1.494.512-3.136.768-4.928.768-2.048 0-4.011-.363-5.888-1.088-1.878-.725-3.542-1.792-4.992-3.2-1.408-1.408-2.539-3.136-3.392-5.184-.811-2.048-1.216-4.373-1.216-6.976 0-2.432.405-4.629 1.216-6.592.81-2.005 1.877-3.712 3.2-5.12 1.365-1.451 2.944-2.56 4.736-3.328 1.792-.811 3.648-1.216 5.568-1.216 2.346 0 4.437.405 6.272 1.216 1.877.768 3.434 1.856 4.672 3.264 1.237 1.408 2.176 3.115 2.816 5.12.682 1.963 1.024 4.139 1.024 6.528 0 .384-.022.747-.064 1.088 0 .341-.022.619-.065.832h-23.167c.042 1.365.298 2.624.768 3.776.469 1.152 1.109 2.155 1.92 3.008.853.811 1.834 1.451 2.944 1.92 1.152.427 2.368.64 3.648.64 2.517 0 4.437-.597 5.76-1.792 1.322-1.195 2.282-2.667 2.88-4.416zm5.631-6.976v-5.248h17.344v5.248zm25.365 15.744v-30.784h5.76v4.096c.981-1.707 2.325-2.965 4.032-3.776 1.749-.811 3.52-1.216 5.312-1.216 1.92 0 3.712.469 5.376 1.408 1.707.939 2.987 2.411 3.84 4.416 1.237-2.219 2.773-3.733 4.608-4.544 1.835-.853 3.733-1.28 5.696-1.28 1.323 0 2.624.235 3.904.704s2.411 1.195 3.392 2.176c1.024.939 1.835 2.155 2.432 3.648.597 1.451.896 3.179.896 5.184v19.968h-5.952v-19.328c0-2.005-.533-3.669-1.6-4.992-1.024-1.365-2.667-2.048-4.928-2.048-2.133 0-3.861.747-5.184 2.24-1.28 1.451-1.92 3.285-1.92 5.504v18.624h-6.016v-19.328c0-2.005-.512-3.669-1.536-4.992-1.024-1.365-2.688-2.048-4.992-2.048-2.176 0-3.925.725-5.248 2.176-1.28 1.451-1.92 3.328-1.92 5.632v18.56zm55.963 12.864 7.68-16.256-13.248-27.392h6.912l9.6 21.248 9.216-21.248h6.464l-20.032 43.648zm28.922-28.608v-5.248h17.344v5.248zm32.804-15.04h6.656v5.44h-6.656v16c0 1.408.32 2.475.96 3.2.64.683 1.749 1.024 3.328 1.024.384 0 .811-.021 1.28-.064s.832-.107 1.088-.192v5.12c-.256.085-.747.192-1.472.32-.725.171-1.6.256-2.624.256-2.645 0-4.736-.747-6.272-2.24-1.536-1.536-2.304-3.712-2.304-6.528v-16.896h-5.888v-5.44h1.664c1.664 0 2.859-.448 3.584-1.344.768-.896 1.152-2.027 1.152-3.392v-4.992h5.504zm27.558 26.368c1.28 0 2.496-.235 3.648-.704s2.176-1.173 3.072-2.112 1.6-2.091 2.112-3.456.768-2.944.768-4.736-.256-3.349-.768-4.672c-.512-1.365-1.216-2.517-2.112-3.456s-1.92-1.643-3.072-2.112-2.368-.704-3.648-.704-2.496.235-3.648.704-2.176 1.173-3.072 2.112-1.6 2.091-2.112 3.456c-.512 1.323-.768 2.88-.768 4.672s.256 3.371.768 4.736 1.216 2.517 2.112 3.456 1.92 1.643 3.072 2.112 2.368.704 3.648.704zm0-27.328c2.304 0 4.416.427 6.336 1.28 1.92.811 3.584 1.941 4.992 3.392s2.496 3.179 3.263 5.184c.769 1.963 1.153 4.117 1.153 6.464s-.384 4.523-1.153 6.528c-.767 2.005-1.855 3.733-3.263 5.184s-3.072 2.603-4.992 3.456c-1.92.811-4.032 1.216-6.336 1.216s-4.416-.405-6.336-1.216c-1.92-.853-3.584-2.005-4.992-3.456s-2.496-3.179-3.264-5.184-1.152-4.181-1.152-6.528.384-4.501 1.152-6.464c.768-2.005 1.856-3.733 3.264-5.184s3.072-2.581 4.992-3.392c1.92-.853 4.032-1.28 6.336-1.28zm21.521 23.488c0-1.365.234-2.581.704-3.648.469-1.109 1.109-2.048 1.92-2.816.853-.768 1.856-1.387 3.008-1.856s2.389-.811 3.712-1.024l8.32-1.216c.938-.128 1.557-.405 1.856-.832.341-.427.512-.917.512-1.472 0-1.493-.534-2.773-1.6-3.84-1.024-1.109-2.71-1.664-5.056-1.664-2.134 0-3.776.597-4.928 1.792-1.152 1.152-1.835 2.624-2.048 4.416l-5.76-1.344c.17-1.451.597-2.795 1.28-4.032.725-1.237 1.642-2.283 2.752-3.136 1.109-.896 2.389-1.579 3.84-2.048 1.493-.512 3.072-.768 4.735-.768 2.305 0 4.267.32 5.889.96 1.621.597 2.944 1.408 3.968 2.432s1.77 2.219 2.24 3.584c.469 1.365.704 2.795.704 4.288v15.424c0 1.365.042 2.453.128 3.264.085.811.17 1.408.256 1.792h-5.888c-.086-.384-.171-.896-.256-1.536-.043-.64-.064-1.515-.064-2.624-.342.555-.79 1.131-1.344 1.728-.555.597-1.238 1.152-2.048 1.664-.811.512-1.771.917-2.88 1.216-1.067.341-2.283.512-3.648.512-1.579 0-3.008-.256-4.288-.768-1.238-.512-2.304-1.173-3.2-1.984-.896-.853-1.6-1.835-2.112-2.944-.47-1.109-.704-2.283-.704-3.52zm11.136 4.16c1.237 0 2.389-.149 3.456-.448 1.109-.341 2.048-.853 2.816-1.536.81-.725 1.45-1.664 1.92-2.816.469-1.195.704-2.624.704-4.288v-1.408l-9.408 1.408c-1.28.213-2.347.704-3.2 1.472-.854.725-1.28 1.771-1.28 3.136 0 1.152.448 2.197 1.344 3.136.896.896 2.112 1.344 3.648 1.344zm26.844-5.824c.213 1.621.917 2.987 2.112 4.096 1.194 1.109 2.88 1.664 5.056 1.664 1.706 0 3.008-.405 3.904-1.216s1.344-1.771 1.344-2.88c0-.981-.342-1.813-1.024-2.496-.683-.683-1.664-1.173-2.944-1.472l-5.248-1.152c-2.432-.512-4.331-1.536-5.696-3.072-1.323-1.536-1.984-3.392-1.984-5.568 0-1.323.277-2.56.832-3.712.597-1.195 1.386-2.24 2.368-3.136.981-.896 2.133-1.6 3.456-2.112 1.365-.512 2.794-.768 4.288-.768 2.09 0 3.84.299 5.248.896 1.45.597 2.624 1.344 3.52 2.24.896.853 1.557 1.749 1.984 2.688.469.939.789 1.749.96 2.432l-5.312 1.984c-.086-.384-.235-.875-.448-1.472-.214-.597-.555-1.152-1.024-1.664-.47-.555-1.11-1.024-1.92-1.408-.811-.384-1.814-.576-3.008-.576-1.536 0-2.774.427-3.712 1.28-.939.811-1.408 1.749-1.408 2.816 0 1.963 1.173 3.2 3.52 3.712l4.992 1.088c2.816.597 4.928 1.707 6.336 3.328 1.45 1.579 2.176 3.52 2.176 5.824 0 1.109-.235 2.219-.704 3.328-.47 1.109-1.174 2.133-2.112 3.072-.896.939-2.048 1.685-3.456 2.24-1.408.597-3.072.896-4.992.896-2.134 0-3.968-.299-5.504-.896-1.494-.597-2.752-1.344-3.776-2.24-.982-.896-1.75-1.856-2.304-2.88-.512-1.067-.832-2.048-.96-2.944zm34.441-20.864h6.656v5.44h-6.656v16c0 1.408.32 2.475.96 3.2.64.683 1.749 1.024 3.328 1.024.384 0 .811-.021 1.28-.064s.832-.107 1.088-.192v5.12c-.256.085-.747.192-1.472.32-.725.171-1.6.256-2.624.256-2.645 0-4.736-.747-6.272-2.24-1.536-1.536-2.304-3.712-2.304-6.528v-16.896h-5.888v-5.44h1.664c1.664 0 2.859-.448 3.584-1.344.768-.896 1.152-2.027 1.152-3.392v-4.992h5.504zm17.559 20.864c.213 1.621.917 2.987 2.112 4.096 1.194 1.109 2.88 1.664 5.056 1.664 1.706 0 3.008-.405 3.904-1.216s1.344-1.771 1.344-2.88c0-.981-.342-1.813-1.024-2.496-.683-.683-1.664-1.173-2.944-1.472l-5.248-1.152c-2.432-.512-4.331-1.536-5.696-3.072-1.323-1.536-1.984-3.392-1.984-5.568 0-1.323.277-2.56.832-3.712.597-1.195 1.386-2.24 2.368-3.136.981-.896 2.133-1.6 3.456-2.112 1.365-.512 2.794-.768 4.288-.768 2.09 0 3.84.299 5.248.896 1.45.597 2.624 1.344 3.52 2.24.896.853 1.557 1.749 1.984 2.688.469.939.789 1.749.96 2.432l-5.312 1.984c-.086-.384-.235-.875-.448-1.472-.214-.597-.555-1.152-1.024-1.664-.47-.555-1.11-1.024-1.92-1.408-.811-.384-1.814-.576-3.008-.576-1.536 0-2.774.427-3.712 1.28-.939.811-1.408 1.749-1.408 2.816 0 1.963 1.173 3.2 3.52 3.712l4.992 1.088c2.816.597 4.928 1.707 6.336 3.328 1.45 1.579 2.176 3.52 2.176 5.824 0 1.109-.235 2.219-.704 3.328-.47 1.109-1.174 2.133-2.112 3.072-.896.939-2.048 1.685-3.456 2.24-1.408.597-3.072.896-4.992.896-2.134 0-3.968-.299-5.504-.896-1.494-.597-2.752-1.344-3.776-2.24-.982-.896-1.75-1.856-2.304-2.88-.512-1.067-.832-2.048-.96-2.944z" fill="#4a5568"/></g><g filter="url(#b)"><path d="m170.031 196.219c-8.344.844-15.469-5.719-15.469-14.063v-30.187l-2.343-2.344c-3.469-3.469-5.438-8.156-5.438-13.125 0-9.094 6.563-16.781 15.469-18.281 20.719-3.469 41.813-3.469 62.531 0 8.906 1.5 15.469 9.187 15.469 18.281 0 4.875-1.97 9.656-5.438 13.125l-2.344 2.344v30.187c0 8.343-7.218 14.813-15.469 14.063-15.655-1.5-31.405-1.5-46.968 0z" fill="#f8d0af"/><path d="m194.251 115.646c-3.104 0-6.209.077-9.313.229 7.499.375 15 1.125 22.406 2.344 8.906 1.5 15.468 9.187 15.468 18.281 0 4.875-1.968 9.656-5.437 13.125l-2.344 2.344v30.187c0 6.094-3.844 11.156-9.093 13.219 3.749.188 7.594.469 11.344.844.257.026.512.045.766.057.084.002.169.002.253.002 7.693 0 14.168-6.22 14.168-14.122v-30.187l2.343-2.344c3.469-3.469 5.439-8.25 5.439-13.125 0-9.094-6.563-16.781-15.469-18.281-7.671-1.285-15.393-2.094-23.128-2.426-2.467-.098-4.935-.147-7.403-.147z" fill="#dfbb9d"/><path d="m171.531 189.563c-4.968.281-9.562-3.282-9.937-8.343 0-.188 0-.469 0-.657v-27.657l-3.375-3.468c-2.344-2.344-3.938-5.344-4.313-8.625-.843-7.688 4.313-14.438 11.719-15.657.375-.093.75-.093 1.219-.187 16.125-1.406 16.125-1.406 30.656-.281.75.093 1.501.187 2.25.375 6.937 1.125 12.375 7.031 12.375 14.062 0 3.75-1.501 7.313-4.125 10.031l-3.656 3.657v27.656.751c-.374 4.687-4.5 8.062-9.188 7.968-2.625-.094-5.343-.094-7.968-.094-5.157 0-10.407.094-15.657.469z" fill="#fbe4d6"/><path d="m218.313 199.125c-.563 0-1.125 0-1.688-.094-15.375-1.501-31.031-1.501-46.313 0-5.062.469-10.031-1.219-13.593-4.875-3.188-3.187-4.969-7.5-4.969-12v-29.062l-1.5-1.5c-4.031-4.031-6.281-9.375-6.281-15.094 0-10.5 7.5-19.312 17.812-21 20.906-3.469 42.562-3.469 63.375 0 10.313 1.688 17.813 10.594 17.813 21 0 5.719-2.249 11.063-6.281 15.094l-1.5 1.594v29.062c0 9.281-7.5 16.875-16.875 16.875zm-24.844-6.844c7.875 0 15.844.374 23.719 1.219.375 0 .75.094 1.125.094 6.187 0 11.25-5.062 11.25-11.25v-30.188c0-.75.281-1.5.843-1.968l2.344-2.344c2.999-3 4.593-6.938 4.593-11.156 0-7.688-5.53-14.251-13.125-15.469-20.25-3.375-41.25-3.375-61.594 0-7.594 1.312-13.125 7.781-13.125 15.469 0 4.218 1.594 8.156 4.594 11.062l2.344 2.344c.562.562.843 1.219.843 1.969l.095 30.187c0 3 1.219 5.906 3.281 7.969 2.438 2.343 5.719 3.562 9.094 3.187 7.875-.75 15.844-1.125 23.719-1.125z" fill="#454b54"/></g></svg>